<svg xmlns="http://www.w3.org/2000/svg" style="display:none">

<!-- FACEBOOK -->
<symbol id="icon-facebook" viewBox="0 0 24 24">
<path fill="currentColor" d="M22 12a10 10 0 1 0-11.6 9.9v-7H7.7v-3h2.7V9.4c0-2.7 1.6-4.2 4-4.2 1.2 0 2.4.2 2.4.2v2.6H15.4c-1.3 0-1.7.8-1.7 1.6v2h2.9l-.5 3h-2.4v7A10 10 0 0 0 22 12z"/>
</symbol>

<!-- TWITTER / X -->
<symbol id="icon-twitter" viewBox="0 0 24 24">
<path fill="currentColor" d="M18.9 2H22l-6.6 7.5L23 22h-6.9l-5.4-7-6.1 7H1.5l7-8-7-12h7l4.9 6.4L18.9 2z"/>
</symbol>

<!-- LINKEDIN -->
<symbol id="icon-linkedin" viewBox="0 0 24 24">
<path fill="currentColor" d="M4.98 3.5C4.98 5 3.8 6.2 2.3 6.2S-.4 5-.4 3.5 0.8.8 2.3.8s2.68 1.2 2.68 2.7zM.2 8h4.2v13H.2V8zm7.4 0h4v1.8h.1c.6-1 2.1-2.1 4.3-2.1 4.6 0 5.4 3 5.4 7V21h-4.2v-5.8c0-1.4 0-3.1-1.9-3.1s-2.2 1.5-2.2 3v6H7.6V8z"/>
</symbol>

<!-- YOUTUBE -->
<symbol id="icon-youtube" viewBox="0 0 24 24">
<path fill="currentColor" d="M23.5 6.2a3 3 0 0 0-2.1-2.1C19.6 3.5 12 3.5 12 3.5s-7.6 0-9.4.6A3 3 0 0 0 .5 6.2 31 31 0 0 0 0 12a31 31 0 0 0 .5 5.8 3 3 0 0 0 2.1 2.1c1.8.6 9.4.6 9.4.6s7.6 0 9.4-.6a3 3 0 0 0 2.1-2.1A31 31 0 0 0 24 12a31 31 0 0 0-.5-5.8zM9.7 15.5v-7l6.2 3.5-6.2 3.5z"/>
</symbol>

<!-- INSTAGRAM -->
<symbol id="icon-instagram" viewBox="0 0 24 24">
<path fill="currentColor" d="M7 2C4.2 2 2 4.2 2 7v10c0 2.8 2.2 5 5 5h10c2.8 0 5-2.2 5-5V7c0-2.8-2.2-5-5-5H7zm10 2c1.7 0 3 1.3 3 3v10c0 1.7-1.3 3-3 3H7c-1.7 0-3-1.3-3-3V7c0-1.7 1.3-3 3-3h10zm-5 3.5A5.5 5.5 0 1 0 17.5 13 5.5 5.5 0 0 0 12 7.5zm0 9A3.5 3.5 0 1 1 15.5 13 3.5 3.5 0 0 1 12 16.5zM18 6.2a1.2 1.2 0 1 0 1.2 1.2A1.2 1.2 0 0 0 18 6.2z"/>
</symbol>

</svg>